# xmcd
#
# Track frame offsets:
#	150
#	14297
#	23332
#	33516
#	45697
#	57286
#	71481
#	83292
#	95692
#	109065
#	119584
#	128619
#
# Disc length: 1859 seconds
#
# Revision: 2
# Processed by: cddbd v1.5.2PL0 Copyright (c) Steve Scherf et al.
# Submitted via: EasyCDDAExtractor 11.1.0.1
#
DISCID=8f07410c
DTITLE=Dr Feelgood - Be Seeing You
DYEAR=1977
DGENRE=Blues
TTITLE0=Ninety-Nine And A Half (Won't Do)
TTITLE1=She's A Windup
TTITLE2=I Thought I Had It Made
TTITLE3=I Don't Wanna Know
TTITLE4=That's It, I Quit
TTITLE5=As Long As The Price Is Right
TTITLE6=Hi-Rise
TTITLE7=My Buddy Buddy Friends
TTITLE8=Baby Jane
TTITLE9=The Blues Had A Baby And They Named It Rock 'n Roll (# 2)
TTITLE10=Looking Back
TTITLE11=60 Minutes Of Your Love
EXTD=
EXTT0=
EXTT1=
EXTT2=
EXTT3=
EXTT4=
EXTT5=
EXTT6=
EXTT7=
EXTT8=
EXTT9=
EXTT10=
EXTT11=
PLAYORDER=
